/* XPM */
static const char * a_xpm[] = {
"16 24 2 1",
" 	c None",
".	c #FFFFFF",
"                ",
"                ",
"                ",
"   .........    ",
"   .........    ",
"   ..........   ",
"   ..........   ",
"   ..........   ",
"   .........    ",
"    ........    ",
"    ... .....   ",
"    ...  ....   ",
"    ...  ....   ",
"    ...  ....   ",
"    ...  .....  ",
"   ....  .....  ",
"   ....  .....  ",
"   ....  .....  ",
"   ............ ",
"  ............. ",
" ......  .......",
" .....    ......",
" ......  .......",
" ......  ......."};
