/* XPM */
static const char * f_xpm[] = {
"16 24 2 1",
" 	c #000000",
".	c #FFFFFF",
"           .....",
"            ....",
"            ....",
"           .....",
"           .....",
"           .....",
"           .....",
"           .....",
".   ...... .....",
".   ............",
".       ........",
".       ........",
".       ........",
".       ........",
".     ..........",
".    ...........",
".    ...........",
".    ...........",
"      ..........",
"      ..........",
"      ..........",
"      ..........",
"      ..........",
"      .........."};
