/* XPM */
static const char * m_xpm[] = {
"16 24 2 1",
" 	c #000000",
".	c #FFFFFF",
"    ......      ",
"    ......      ",
"    ......      ",
"     .....      ",
"     .....      ",
"     .....      ",
"      ....      ",
"      ....      ",
"      ...       ",
"      ...       ",
"   .   ..   .   ",
"   .   ..   .   ",
"   ..  ..   .   ",
"   ..   .  ..   ",
"   ..   .  ..   ",
"   ...     ..   ",
"   ...     ..   ",
"   ...     .    ",
"     .     .    ",
"     ..   .     ",
"     ......     ",
"     ......     ",
"     ......     ",
"     ......     "};
