/* XPM */
static const char * p_xpm[] = {
"16 24 2 1",
" 	c #FFFFFF",
".	c #000000",
" ..........     ",
" ............   ",
" ............   ",
" ............   ",
" ............   ",
" ............   ",
" ............   ",
"  ....   ....   ",
"  ....   ....   ",
"  ....   ....   ",
"  ....   ....   ",
"  ...........   ",
"  ...........   ",
"  ..........    ",
"  ....          ",
"  ...           ",
"  ...           ",
"  .....         ",
" ......         ",
" ......         ",
" ......         ",
" ......         ",
" ......         ",
" ......         "};
