/* XPM */
static const char * s_xpm[] = {
"16 24 2 1",
" 	c #FFFFFF",
".	c #000000",
"  ........ ...  ",
" .............  ",
" .............  ",
" .............  ",
" .............  ",
" .............  ",
" .............  ",
" .....    ....  ",
" .....          ",
" .....          ",
" .....          ",
" ............   ",
"  ...........   ",
"        ......  ",
"  ....   .....  ",
"  ....   .....  ",
" .....   .....  ",
" .............  ",
" .............  ",
" ............   ",
" ............   ",
" ............   ",
"  ...........   ",
"   ........     "};
