/* XPM */
static const char *clock_xpm[] = {
/* columns rows colors chars-per-pixel */
"128 128 2 1 ",
"  c None",
". c #000000",
/* pixels */
"              ....................................................................................................              ",
"             ......................................................................................................             ",
"            ........................................................................................................            ",
"           ..........................................................................................................           ",
"           ..........................................................................................................           ",
"           ..........................................................................................................           ",
"           ..........................................................................................................           ",
"           ..........................................................................................................           ",
"           ..........................................................................................................           ",
"            ........................................................................................................            ",
"             ......................................................................................................             ",
"                 ...............................................................................................                ",
"                    ...........                                                                  .........                      ",
"                    ...........                                                                  .........                      ",
"                    ...........                                                                  .........                      ",
"                    ...........                                                                  .........                      ",
"                    ...........                                                                  .........                      ",
"                    ...........                                                                  .........                      ",
"                    ...........                                                                  .........                      ",
"                    ...........                                                                  .........                      ",
"                    ...........                                                                  .........                      ",
"                    ...........                                                                  .........                      ",
"                    ...........                                                                  .........                      ",
"                    ...........                                                                  .........                      ",
"                    ...........      ......................................................      .........                      ",
"                    ...........     ........................................................     .........                      ",
"                    ...........     ........................................................     .........                      ",
"                    ...........     ........................................................     .........                      ",
"                    ...........     ........................................................     .........                      ",
"                    ...........     ........................................................     .........                      ",
"                    ...........     .......................................................      .........                      ",
"                     ..........      ......................................................      .........                      ",
"                     ..........      ......................................................      .........                      ",
"                     ..........      .....................................................       .........                      ",
"                     ..........       ....................................................       .........                      ",
"                     ...........      ...................................................       ..........                      ",
"                     ...........       ..................................................       .........                       ",
"                      ..........       .................................................        .........                       ",
"                      ...........       ...............................................        ..........                       ",
"                      ...........        .............................................         .........                        ",
"                       ...........        ............................................        ..........                        ",
"                       ...........         ..........................................        ...........                        ",
"                        ...........        .........................................         ..........                         ",
"                        ............        .......................................         ...........                         ",
"                         ...........         .....................................          ..........                          ",
"                         ............         ...................................          ..........                           ",
"                          ............         .................................          ...........                           ",
"                          .............         ...............................          ...........                            ",
"                           .............         .............................          ............                            ",
"                            ............          ...........................           ...........                             ",
"                             ............          .........................           ...........                              ",
"                             .............          .......................           ...........                               ",
"                              .............          .....................           ............                               ",
"                               .............          ..................            ............                                ",
"                                .............           ...............            ............                                 ",
"                                 .............           .............            ............                                  ",
"                                  .............           ...........            ............                                   ",
"                                  ...............          .........            ............                                    ",
"                                   ...............          .......           .............                                     ",
"                                    ...............           ....           .............                                      ",
"                                     ...............           .            .............                                       ",
"                                       ..............                      .............                                        ",
"                                        ..............                    .............                                         ",
"                                         .............                    ............                                          ",
"                                         .............                    ............                                          ",
"                                        ..............                    .............                                         ",
"                                       ..............                      .............                                        ",
"                                      ...............                      ..............                                       ",
"                                     ..............                          .............                                      ",
"                                    ..............                            .............                                     ",
"                                   ..............                              .............                                    ",
"                                  ..............                                .............                                   ",
"                                 ..............                                   ............                                  ",
"                                ..............                                     ............                                 ",
"                               ..............                                       ............                                ",
"                              ..............                                         ............                               ",
"                              .............                                           ............                              ",
"                             .............                                             ...........                              ",
"                            .............                                               ...........                             ",
"                           .............                                                 ...........                            ",
"                           ............                                                  ...........                            ",
"                          ............                                                    ...........                           ",
"                         .............                                                     ...........                          ",
"                         ............                                                       ..........                          ",
"                        ............                                                        ...........                         ",
"                        ...........                                                          ..........                         ",
"                       ............                                                           ..........                        ",
"                       ...........                                                            ..........                        ",
"                      ............                                                             .........                        ",
"                      ...........                                                              ..........                       ",
"                      ...........                            .....                              .........                       ",
"                     ...........                           ..........                           .........                       ",
"                     ...........                        ................                        ..........                      ",
"                     ..........                       .....................                      .........                      ",
"                     ..........                    ..........................                    .........                      ",
"                     ..........                  ...............................                 .........                      ",
"                     ..........               ....................................               .........                      ",
"                    ...........             ........................................             .........                      ",
"                    ...........           ............................................           .........                      ",
"                    ...........         ................................................         .........                      ",
"                    ...........        ...................................................       .........                      ",
"                    ...........      ......................................................      .........                      ",
"                    ...........     ........................................................     .........                      ",
"                    ...........     ........................................................     .........                      ",
"                    ...........     ........................................................     .........                      ",
"                    ...........     ........................................................     .........                      ",
"                    ...........     ........................................................     .........                      ",
"                    ...........     ........................................................     .........                      ",
"                    ...........     ........................................................     .........                      ",
"                    ...........     ........................................................     .........                      ",
"                    ...........                                                                  .........                      ",
"                    ...........                                                                  .........                      ",
"                    ...........                                                                  .........                      ",
"                    ...........                                                                  .........                      ",
"                    ...........                                                                  .........                      ",
"                    ...........                                                                  .........                      ",
"                ................................................................................................                ",
"             ......................................................................................................             ",
"            ........................................................................................................            ",
"           ..........................................................................................................           ",
"           ..........................................................................................................           ",
"           ..........................................................................................................           ",
"           ..........................................................................................................           ",
"           ..........................................................................................................           ",
"           ..........................................................................................................           ",
"            ........................................................................................................            ",
"             ......................................................................................................             ",
"              ....................................................................................................              "
};
